<mxfile host="app.diagrams.net" modified="2024-01-25T18:20:32.247Z" agent="Mozilla/5.0 (Windows NT 10.0; Win64; x64) AppleWebKit/537.36 (KHTML, like Gecko) Chrome/121.0.0.0 Safari/537.36" etag="xN1ajA1FpJZZzHB2BKzX" version="22.1.21" type="device">
  <diagram id="DlG5IulHkBgPp9QvWiS7" name="Page-1">
    <mxGraphModel dx="1512" dy="854" grid="1" gridSize="10" guides="1" tooltips="1" connect="1" arrows="1" fold="1" page="1" pageScale="1" pageWidth="850" pageHeight="1100" math="0" shadow="0">
      <root>
        <mxCell id="0" />
        <mxCell id="1" parent="0" />
        <mxCell id="wMoigFsmUsw5wtTXiGsd-1" value="&lt;font style=&quot;font-size: 18px;&quot;&gt;DOMListener&lt;/font&gt;" style="whiteSpace=wrap;html=1;aspect=fixed;" vertex="1" parent="1">
          <mxGeometry x="579" y="240" width="210" height="210" as="geometry" />
        </mxCell>
        <mxCell id="wMoigFsmUsw5wtTXiGsd-3" value="Add&lt;br style=&quot;font-size: 18px;&quot;&gt;&amp;nbsp;events" style="text;html=1;align=center;verticalAlign=middle;resizable=0;points=[];autosize=1;strokeColor=none;fillColor=none;fontSize=18;" vertex="1" parent="1">
          <mxGeometry x="594" y="453" width="80" height="60" as="geometry" />
        </mxCell>
        <mxCell id="wMoigFsmUsw5wtTXiGsd-4" value="Delete&lt;br style=&quot;font-size: 18px;&quot;&gt;&amp;nbsp;events" style="text;html=1;align=center;verticalAlign=middle;resizable=0;points=[];autosize=1;strokeColor=none;fillColor=none;fontSize=18;" vertex="1" parent="1">
          <mxGeometry x="701" y="454" width="80" height="60" as="geometry" />
        </mxCell>
        <mxCell id="wMoigFsmUsw5wtTXiGsd-8" style="edgeStyle=orthogonalEdgeStyle;rounded=0;orthogonalLoop=1;jettySize=auto;html=1;" edge="1" parent="1" source="wMoigFsmUsw5wtTXiGsd-7" target="wMoigFsmUsw5wtTXiGsd-1">
          <mxGeometry relative="1" as="geometry" />
        </mxCell>
        <mxCell id="wMoigFsmUsw5wtTXiGsd-14" style="edgeStyle=orthogonalEdgeStyle;rounded=0;orthogonalLoop=1;jettySize=auto;html=1;" edge="1" parent="1" source="wMoigFsmUsw5wtTXiGsd-7" target="wMoigFsmUsw5wtTXiGsd-9">
          <mxGeometry relative="1" as="geometry" />
        </mxCell>
        <mxCell id="wMoigFsmUsw5wtTXiGsd-15" style="edgeStyle=orthogonalEdgeStyle;rounded=0;orthogonalLoop=1;jettySize=auto;html=1;entryX=0.5;entryY=0;entryDx=0;entryDy=0;" edge="1" parent="1" source="wMoigFsmUsw5wtTXiGsd-7" target="wMoigFsmUsw5wtTXiGsd-10">
          <mxGeometry relative="1" as="geometry" />
        </mxCell>
        <mxCell id="wMoigFsmUsw5wtTXiGsd-16" style="edgeStyle=orthogonalEdgeStyle;rounded=0;orthogonalLoop=1;jettySize=auto;html=1;entryX=0.5;entryY=0;entryDx=0;entryDy=0;" edge="1" parent="1" source="wMoigFsmUsw5wtTXiGsd-7" target="wMoigFsmUsw5wtTXiGsd-11">
          <mxGeometry relative="1" as="geometry" />
        </mxCell>
        <mxCell id="wMoigFsmUsw5wtTXiGsd-17" style="edgeStyle=orthogonalEdgeStyle;rounded=0;orthogonalLoop=1;jettySize=auto;html=1;entryX=0.5;entryY=0;entryDx=0;entryDy=0;" edge="1" parent="1" source="wMoigFsmUsw5wtTXiGsd-7" target="wMoigFsmUsw5wtTXiGsd-12">
          <mxGeometry relative="1" as="geometry" />
        </mxCell>
        <mxCell id="wMoigFsmUsw5wtTXiGsd-7" value="&lt;font style=&quot;font-size: 18px;&quot;&gt;ExcelComponent&lt;/font&gt;" style="whiteSpace=wrap;html=1;aspect=fixed;" vertex="1" parent="1">
          <mxGeometry x="170" y="240" width="210" height="210" as="geometry" />
        </mxCell>
        <mxCell id="wMoigFsmUsw5wtTXiGsd-19" style="edgeStyle=orthogonalEdgeStyle;rounded=0;orthogonalLoop=1;jettySize=auto;html=1;entryX=0;entryY=0.75;entryDx=0;entryDy=0;" edge="1" parent="1" source="wMoigFsmUsw5wtTXiGsd-9" target="wMoigFsmUsw5wtTXiGsd-18">
          <mxGeometry relative="1" as="geometry" />
        </mxCell>
        <mxCell id="wMoigFsmUsw5wtTXiGsd-9" value="Header" style="whiteSpace=wrap;html=1;aspect=fixed;fontSize=18;" vertex="1" parent="1">
          <mxGeometry x="52" y="557" width="70" height="70" as="geometry" />
        </mxCell>
        <mxCell id="wMoigFsmUsw5wtTXiGsd-20" style="edgeStyle=orthogonalEdgeStyle;rounded=0;orthogonalLoop=1;jettySize=auto;html=1;entryX=0.25;entryY=0;entryDx=0;entryDy=0;" edge="1" parent="1" source="wMoigFsmUsw5wtTXiGsd-10" target="wMoigFsmUsw5wtTXiGsd-18">
          <mxGeometry relative="1" as="geometry" />
        </mxCell>
        <mxCell id="wMoigFsmUsw5wtTXiGsd-10" value="Toolbar" style="whiteSpace=wrap;html=1;aspect=fixed;fontSize=18;" vertex="1" parent="1">
          <mxGeometry x="177" y="557" width="70" height="70" as="geometry" />
        </mxCell>
        <mxCell id="wMoigFsmUsw5wtTXiGsd-21" style="edgeStyle=orthogonalEdgeStyle;rounded=0;orthogonalLoop=1;jettySize=auto;html=1;entryX=0.75;entryY=0;entryDx=0;entryDy=0;" edge="1" parent="1" source="wMoigFsmUsw5wtTXiGsd-11" target="wMoigFsmUsw5wtTXiGsd-18">
          <mxGeometry relative="1" as="geometry" />
        </mxCell>
        <mxCell id="wMoigFsmUsw5wtTXiGsd-11" value="Formula" style="whiteSpace=wrap;html=1;aspect=fixed;fontSize=18;" vertex="1" parent="1">
          <mxGeometry x="307" y="557" width="70" height="70" as="geometry" />
        </mxCell>
        <mxCell id="wMoigFsmUsw5wtTXiGsd-22" style="edgeStyle=orthogonalEdgeStyle;rounded=0;orthogonalLoop=1;jettySize=auto;html=1;entryX=1;entryY=0.75;entryDx=0;entryDy=0;" edge="1" parent="1" source="wMoigFsmUsw5wtTXiGsd-12" target="wMoigFsmUsw5wtTXiGsd-18">
          <mxGeometry relative="1" as="geometry" />
        </mxCell>
        <mxCell id="wMoigFsmUsw5wtTXiGsd-12" value="Table" style="whiteSpace=wrap;html=1;aspect=fixed;fontSize=18;" vertex="1" parent="1">
          <mxGeometry x="437" y="557" width="70" height="70" as="geometry" />
        </mxCell>
        <mxCell id="wMoigFsmUsw5wtTXiGsd-18" value="&lt;font style=&quot;font-size: 18px;&quot;&gt;Excel&lt;/font&gt;" style="whiteSpace=wrap;html=1;aspect=fixed;" vertex="1" parent="1">
          <mxGeometry x="170" y="740" width="210" height="210" as="geometry" />
        </mxCell>
        <mxCell id="wMoigFsmUsw5wtTXiGsd-23" value="Text" style="text;html=1;align=center;verticalAlign=middle;resizable=0;points=[];autosize=1;strokeColor=none;fillColor=none;" vertex="1" parent="1">
          <mxGeometry x="465" y="158" width="50" height="30" as="geometry" />
        </mxCell>
      </root>
    </mxGraphModel>
  </diagram>
</mxfile>
